#!OML:ASF X:\für Bonn\!DataBase\2005_08_11_Bastian_Final\c3d\Bastian.ASF
:FULLY-SPECIFIED
:DEGREES
76
root -2.18003 16.7091 6.15674 137.674 -20.0358 -167.69
lowerback 45.6531 -8.41517 2.31067
upperback 13.7731 -16.4123 5.57431
thorax -3.64416 -11.3519 11.3432
lowerneck -11.3857 -2.77474 -3.58865
upperneck -4.24444 -2.79464 6.65035
head 0.774422 -1.03736 2.64523
rclavicle 6.99722e-014 -5.32743e-014
rhumerus -40.138 42.6416 -96.3036
rradius 42.244
rwrist -27.3058
rhand -33.6956 3.95037
rfingers 7.12502
rthumb -6.88574 -25.9176
lclavicle 6.99722e-014 -5.32743e-014
lhumerus 55.6789 -17.2352 75.4407
lradius 112.531
lwrist -16.9292
lhand -59.5444 -12.2233
lfingers 7.12502
lthumb -31.718 15.0388
rfemur -94.3819 0.458061 42.3522
rtibia 138.067
rfoot 9.15276 -14.072
rtoes -1.69435
lfemur 25.5851 -7.36693 -15.9429
ltibia 33.2692
lfoot -11.8953 -8.38679
ltoes 7.60952
77
root -2.18164 16.6966 6.15923 137.437 -20.1041 -167.644
lowerback 45.8192 -8.39152 2.29487
upperback 13.8217 -16.444 5.62538
thorax -3.60603 -11.4031 11.4281
lowerneck -11.4021 -2.77891 -3.78948
upperneck -4.2921 -2.77083 6.69984
head 0.766101 -1.02104 2.70035
rclavicle -9.30312e-014 1.09729e-013
rhumerus -39.8618 42.5741 -96.0846
rradius 42.3395
rwrist -27.0815
rhand -33.5562 4.23911
rfingers 7.12502
rthumb -6.75121 -25.6333
lclavicle -9.30312e-014 1.09729e-013
lhumerus 55.6841 -17.407 75.5283
lradius 112.949
lwrist -16.951
lhand -59.7863 -12.4685
lfingers 7.12502
lthumb -31.9484 14.7478
rfemur -94.5667 0.399559 42.4166
rtibia 138.175
rfoot 9.14324 -14.1014
rtoes -2.21334
lfemur 25.7195 -7.39543 -15.9553
ltibia 33.4261
lfoot -11.9631 -8.45725
ltoes 7.52032
78
root -2.18307 16.6856 6.16272 137.237 -20.1672 -167.613
lowerback 45.9535 -8.37202 2.27298
upperback 13.869 -16.4764 5.65705
thorax -3.5658 -11.4492 11.4915
lowerneck -11.383 -2.78261 -3.98926
upperneck -4.3609 -2.74576 6.78462
head 0.745514 -1.00395 2.76757
rclavicle 5.38706e-014 -7.4743e-014
rhumerus -39.6335 42.5008 -95.8971
rradius 42.4963
rwrist -26.8212
rhand -33.4326 4.51555
rfingers 7.12502
rthumb -6.63181 -25.3606
lclavicle 5.38706e-014 -7.4743e-014
lhumerus 55.6574 -17.5933 75.638
lradius 113.36
lwrist -17.0015
lhand -60.0007 -12.7306
lfingers 7.12502
lthumb -32.1525 14.4447
rfemur -94.7274 0.373072 42.4478
rtibia 138.26
rfoot 9.12559 -14.136
rtoes -3.14943
lfemur 25.822 -7.43879 -15.9934
ltibia 33.5721
lfoot -12.0266 -8.50943
ltoes 7.58215
79
root -2.18375 16.6763 6.16826 137.033 -20.2037 -167.563
lowerback 46.117 -8.35366 2.26233
upperback 13.9016 -16.5038 5.70162
thorax -3.54796 -11.4926 11.5688
lowerneck -11.3026 -2.76909 -4.21047
upperneck -4.46193 -2.69603 6.87081
head 0.702833 -0.97581 2.84077
rclavicle -5.62561e-014 6.2816e-014
rhumerus -39.4092 42.4042 -95.7146
rradius 42.6442
rwrist -26.5438
rhand -33.3034 4.79309
rfingers 7.12502
rthumb -6.50708 -25.0869
lclavicle -5.62561e-014 6.2816e-014
lhumerus 55.5844 -17.7996 75.7427
lradius 113.767
lwrist -17.0309
lhand -60.222 -13.1608
lfingers 7.12502
lthumb -32.3631 13.9717
rfemur -94.7951 0.340677 42.4826
rtibia 138.321
rfoot 9.07234 -14.156
rtoes -4.34868
lfemur 25.9214 -7.46483 -15.9829
ltibia 33.7116
lfoot -12.0698 -8.58096
ltoes 7.62618
80
root -2.18398 16.669 6.17425 136.86 -20.262 -167.54
lowerback 46.2518 -8.32534 2.21983
upperback 13.9395 -16.531 5.74302
thorax -3.51341 -11.5361 11.6521
lowerneck -11.2622 -2.76705 -4.4242
upperneck -4.52617 -2.66449 6.94593
head 0.67946 -0.956419 2.90812
rclavicle 1.94809e-014 -8.11041e-014
rhumerus -39.1911 42.3409 -95.5239
rradius 42.8202
rwrist -26.264
rhand -33.1937 5.10578
rfingers 7.12502
rthumb -6.40119 -24.7775
lclavicle 1.94809e-014 -8.11041e-014
lhumerus 55.5195 -18.0246 75.8898
lradius 114.167
lwrist -17.1104
lhand -60.3828 -13.4734
lfingers 7.12502
lthumb -32.5162 13.6277
rfemur -94.862 0.30451 42.4933
rtibia 138.382
rfoot 9.16616 -14.1518
rtoes -5.432
lfemur 26.0004 -7.47758 -15.9978
ltibia 33.8299
lfoot -12.0882 -8.65673
ltoes 7.78151
81
root -2.18439 16.6607 6.18094 136.692 -20.3211 -167.518
lowerback 46.4013 -8.30295 2.17624
upperback 13.9773 -16.5682 5.77845
thorax -3.48177 -11.585 11.7353
lowerneck -11.2411 -2.75069 -4.60442
upperneck -4.60427 -2.61411 7.01304
head 0.652722 -0.926866 2.96743
rclavicle 1.59028e-015 4.85035e-014
rhumerus -38.9299 42.2831 -95.3403
rradius 42.9947
rwrist -26.0219
rhand -33.1031 5.40653
rfingers 7.12502
rthumb -6.31379 -24.4794
lclavicle 1.59028e-015 4.85035e-014
lhumerus 55.3918 -18.1792 76.0412
lradius 114.599
lwrist -17.1939
lhand -60.5058 -13.8106
lfingers 7.12502
lthumb -32.6333 13.2663
rfemur -94.8848 0.269415 42.4677
rtibia 138.447
rfoot 9.34785 -14.1313
rtoes -5.91796
lfemur 26.0798 -7.50149 -16.0248
ltibia 33.9398
lfoot -12.1234 -8.715
ltoes 7.7174
